Coordinates
version=1
nRows=6
nColumns=107
inDegrees=yes

Units are S.I. units (second, meters, Newtons, ...)
If the header above contains a line with 'inDegrees', this indicates whether rotational values are in degrees (yes) or radians (no).

endheader
time	sternoclavicular_r2	sternoclavicular_r3	unrotscap_r3	unrotscap_r2	acromioclavicular_r2	acromioclavicular_r3	acromioclavicular_r1	unrothum_r1	unrothum_r3	unrothum_r2	elv_angle	shoulder_elv	shoulder1_r2	shoulder_rot	elbow_flexion	pro_sup	deviation	flexion	proximal_distal_r1	proximal_distal_r3	cmc_flexion	cmc_abduction	mp_flexion	ip_flexion	mcp2_flexion	mcp2_abduction	pm2_flexion	md2_flexion	mcp3_flexion	mcp3_abduction	pm3_flexion	md3_flexion	mcp4_flexion	mcp4_abduction	pm4_flexion	md4_flexion	mcp5_flexion	mcp5_abduction	pm5_flexion	md5_flexion	bicpt_tx	bicpt_ty	bicpt_tz	bicpt2_tx	bicpt2_ty	bicpt2_tz	ptpt_tx	ptpt_ty	ptpt_tz	FCUpt_tx	FCUpt_ty	FCUpt_tz	EDCpt_tx	EDCpt_ty	EDCpt_tz	APLpt_tx	APLpt_ty	APLpt_tz	FPLpt_tx	FPLpt_ty	FPLpt_tz	FPLpt2_tx	FPLpt2_ty	FPLpt2_tz	PEC1pt2_tx	PEC1pt2_ty	PEC1pt2_tz	PEC1pt3_tx	PEC1pt3_ty	PEC1pt3_tz	PEC2pt2_tx	PEC2pt2_ty	PEC2pt2_tz	PEC2pt3_tx	PEC2pt3_ty	PEC2pt3_tz	PEC3pt2_tx	PEC3pt2_ty	PEC3pt2_tz	PEC3pt3_tx	PEC3pt3_ty	PEC3pt3_tz	DELT2pt2a_tx	DELT2pt2a_ty	DELT2pt2a_tz	DELT2pt2_tx	DELT2pt2_ty	DELT2pt2_tz	LAT1pt2_tx	LAT1pt2_ty	LAT1pt2_tz	LAT1pt3_tx	LAT1pt3_ty	LAT1pt3_tz	LAT2pt2_tx	LAT2pt2_ty	LAT2pt2_tz	LAT2pt3_tx	LAT2pt3_ty	LAT2pt3_tz	LAT3pt2_tx	LAT3pt2_ty	LAT3pt2_tz	LAT3pt3_tx	LAT3pt3_ty	LAT3pt3_tz
      0.00000000	     -0.31056934	      0.13154251	     -0.13154251	      0.31056934	     -0.06288397	      0.50820615	      0.22843517	     -0.22843517	     -0.50820615	      0.06288397	     99.99967515	     73.53005139	     -1.74532358	    -35.03031228	     32.04557976	     48.88502628	      0.12514180	     -0.93101395	      0.15701683	     -0.46550698	     15.31133178	     -2.16860266	    -42.23176303	    -64.03732629	     76.64573339	     13.15574862	     85.06593735	    156.91078656	     82.30446084	      9.22663344	     78.83996370	     36.41810898	     81.11230162	    -11.86141250	     85.19347839	     83.72918423	     87.48659844	    -14.01877270	     98.74906181	      5.64517460	      0.00095997	     -0.03127291	     -0.00489161	      0.01650072	     -0.01890534	     -0.00646620	      0.00393795	     -0.06723561	     -0.00398795	      0.00868695	     -0.18329903	     -0.00041977	     -0.00586619	      0.00175386	      0.00006125	      0.00022670	      0.00009068	      0.00045339	      0.00029017	      0.00087052	      0.00048966	      0.00002308	     -0.00025255	     -0.00030306	      0.00241015	      0.00845596	      0.00588241	     -0.00788406	      0.01903613	     -0.01805573	      0.00241015	      0.00845596	      0.00588241	      0.00053105	      0.01764723	     -0.00927296	      0.00384684	      0.00470225	      0.01571523	      0.00000000	      0.00722732	      0.00000000	     -0.00690366	     -0.03190390	     -0.00595597	      0.02093874	     -0.00093217	     -0.01009427	     -0.00085785	      0.01437922	     -0.00588241	      0.00236930	      0.02075183	     -0.01715703	     -0.00575986	      0.01245927	     -0.00526966	     -0.01200992	      0.02630744	     -0.02945290	     -0.02254923	      0.01392987	     -0.00706706	     -0.01495112	      0.03039245	     -0.03680591
      0.03333333	     -0.32110901	      0.13600662	     -0.13600662	      0.32110901	     -0.06501804	      0.52545295	      0.23618748	     -0.23618748	     -0.52545295	      0.06501804	     97.52389015	     76.02541190	     -1.70211298	    -22.66763663	     30.95951458	     37.84668650	      0.19446589	     -0.89883551	      0.23296428	     -0.44941776	     14.60117215	     -1.98872452	    -42.24860798	    -64.27325797	     77.90984936	     13.00532376	     85.10677751	    154.55015223	     84.62908055	      7.81400297	     80.98978388	     37.83341059	     82.49716892	    -11.92307213	     84.65737389	     83.78008658	     90.31872378	    -14.03121218	     96.74280278	      5.60335830	      0.00092404	     -0.03114843	     -0.00487156	      0.01656516	     -0.01861030	     -0.00769670	      0.00475356	     -0.06670823	     -0.00309875	      0.00756415	     -0.18353921	     -0.00036941	     -0.00454159	      0.00129335	      0.00016064	      0.00024306	      0.00009722	      0.00048612	      0.00031111	      0.00093334	      0.00052500	      0.00002464	     -0.00024659	     -0.00029591	      0.00249195	      0.00874293	      0.00608204	     -0.00815162	      0.01968215	     -0.01866848	      0.00249195	      0.00874293	      0.00608204	      0.00054907	      0.01824611	     -0.00958766	      0.00394258	      0.00486183	      0.01595452	      0.00000000	      0.00772957	      0.00000000	     -0.00713795	     -0.03298661	     -0.00637311	      0.01526825	     -0.00051524	     -0.00427905	     -0.00088696	      0.01486720	     -0.00608204	      0.00244971	      0.02145608	     -0.01773928	     -0.00595533	      0.01288209	     -0.00544849	     -0.01241749	      0.02720023	     -0.03045243	     -0.02331448	      0.01440260	     -0.00730689	     -0.01545851	      0.03142386	     -0.03805497
      0.06666667	     -0.32081446	      0.13588187	     -0.13588187	      0.32081446	     -0.06495840	      0.52497096	      0.23597084	     -0.23597084	     -0.52497096	      0.06495840	     97.48613267	     75.95567602	     -1.70145399	    -22.66357045	     30.92431282	     37.84771533	      0.19441749	     -0.89876739	      0.23291383	     -0.44938370	     14.59807193	     -1.98852183	    -42.24905667	    -64.27321907	     77.91156011	     13.00478590	     85.10682893	    154.54980186	     84.63604189	      7.81316618	     80.99208046	     37.83401550	     82.49813708	    -11.92290987	     84.65626306	     83.77988694	     90.32396379	    -14.03099986	     96.74194395	      5.60330601	      0.00092288	     -0.03114440	     -0.00487091	      0.01656509	     -0.01860074	     -0.00769654	      0.00475348	     -0.06670828	     -0.00309884	      0.00756426	     -0.18353918	     -0.00036940	     -0.00454172	      0.00129341	      0.00016062	      0.00024309	      0.00009723	      0.00048617	      0.00031115	      0.00093345	      0.00052506	      0.00002465	     -0.00024656	     -0.00029587	      0.00248966	      0.00873491	      0.00607646	     -0.00814414	      0.01966410	     -0.01865135	      0.00248966	      0.00873491	      0.00607646	      0.00054857	      0.01822938	     -0.00957886	      0.00393993	      0.00485737	      0.01594803	      0.00000000	      0.00771530	      0.00000000	     -0.00713140	     -0.03295635	     -0.00636126	      0.01526583	     -0.00051512	     -0.00427771	     -0.00088615	      0.01485357	     -0.00607646	      0.00244746	      0.02143640	     -0.01772301	     -0.00594987	      0.01287028	     -0.00544349	     -0.01240610	      0.02717528	     -0.03042449	     -0.02329309	      0.01438939	     -0.00730019	     -0.01544433	      0.03139504	     -0.03802007
      0.10000000	     -0.31840147	      0.13485983	     -0.13485983	      0.31840147	     -0.06446982	      0.52102241	      0.23419599	     -0.23419599	     -0.52102241	      0.06446982	     98.27800313	     75.38437738	     -1.71527474	    -26.10355984	     30.89274155	     41.44598094	      0.18837414	     -0.85014771	      0.22660587	     -0.42507385	     13.50289169	     -1.19429168	    -42.24954707	    -64.65065333	     79.22430673	     12.89965564	     85.64943775	    141.57248717	     86.87240776	      6.41076408	     82.18491405	     40.49925444	     83.78682720	    -11.99673280	     82.31761310	     83.20080695	     93.82724908	    -14.05564210	     92.84370640	      5.57377663	      0.00092184	     -0.03114078	     -0.00487033	      0.01657472	     -0.01859216	     -0.00731420	      0.00448761	     -0.06688019	     -0.00338870	      0.00792614	     -0.18346469	     -0.00039590	     -0.00497351	      0.00143939	      0.00013547	      0.00026455	      0.00010582	      0.00052910	      0.00033863	      0.00101588	      0.00057143	      0.00002692	     -0.00023628	     -0.00028354	      0.00247093	      0.00866921	      0.00603076	     -0.00808289	      0.01951619	     -0.01851107	      0.00247093	      0.00866921	      0.00603076	      0.00054444	      0.01809227	     -0.00950682	      0.00391820	      0.00482084	      0.01589449	      0.00000000	      0.00759889	      0.00000000	     -0.00707776	     -0.03270847	     -0.00626460	      0.01704919	     -0.00062638	     -0.00569744	     -0.00087949	      0.01474185	     -0.00603076	      0.00242905	      0.02127516	     -0.01758970	     -0.00590511	      0.01277347	     -0.00540255	     -0.01231279	      0.02697088	     -0.03019566	     -0.02311790	      0.01428116	     -0.00724528	     -0.01532817	      0.03115890	     -0.03773410
      0.13333333	     -0.31966177	      0.13539364	     -0.13539364	      0.31966177	     -0.06472501	      0.52308473	      0.23512299	     -0.23512299	     -0.52308473	      0.06472501	     98.09602718	     75.68276506	     -1.71209866	    -24.38802625	     30.61028407	     38.03670896	      0.18808012	     -0.86330252	      0.22629772	     -0.43165126	     11.73895751	      0.09907628	    -42.31326662	    -64.93233906	     84.89444705	     13.68789947	     78.83259138	     55.21448913	     87.01211405	      4.38727678	     82.90270708	     40.02623251	     83.44649596	    -12.56983065	     82.45619487	     83.19108933	     94.34558586	    -14.14462194	     93.29984854	      5.50129406	      0.00091249	     -0.03110841	     -0.00486511	      0.01656635	     -0.01851543	     -0.00767693	      0.00473952	     -0.06671731	     -0.00311406	      0.00758317	     -0.18353536	     -0.00037104	     -0.00456439	      0.00130097	      0.00015948	      0.00025913	      0.00010365	      0.00051827	      0.00033169	      0.00099507	      0.00055973	      0.00003015	     -0.00021692	     -0.00026030	      0.00248071	      0.00870353	      0.00605463	     -0.00811488	      0.01959344	     -0.01858434	      0.00248071	      0.00870353	      0.00605463	      0.00054660	      0.01816388	     -0.00954445	      0.00392957	      0.00483992	      0.01592255	      0.00000000	      0.00765958	      0.00000000	     -0.00710578	     -0.03283794	     -0.00631499	      0.01617970	     -0.00057038	     -0.00496832	     -0.00088297	      0.01480020	     -0.00605463	      0.00243867	      0.02135938	     -0.01765933	     -0.00592849	      0.01282403	     -0.00542394	     -0.01236153	      0.02707763	     -0.03031518	     -0.02320940	      0.01433769	     -0.00727396	     -0.01538884	      0.03128224	     -0.03788346
      0.16666667	     -0.31943242	      0.13529650	     -0.13529650	      0.31943242	     -0.06467857	      0.52270944	      0.23495429	     -0.23495429	     -0.52270944	      0.06467857	     98.08866779	     75.62846591	     -1.71197021	    -24.37841195	     30.58821916	     38.03814843	      0.18803732	     -0.86324787	      0.22625231	     -0.43162394	     11.73747451	      0.09900427	    -42.31349715	    -64.93229364	     84.89139048	     13.68778605	     78.83063828	     55.21295846	     87.01332729	      4.38726206	     82.90329734	     40.02640999	     83.44721695	    -12.56981746	     82.45564901	     83.19097488	     94.34808601	    -14.14448689	     93.29988063	      5.50137899	      0.00091176	     -0.03110588	     -0.00486471	      0.01656634	     -0.01850944	     -0.00767676	      0.00473941	     -0.06671737	     -0.00311418	      0.00758331	     -0.18353533	     -0.00037104	     -0.00456457	      0.00130103	      0.00015946	      0.00025916	      0.00010366	      0.00051831	      0.00033172	      0.00099516	      0.00055978	      0.00003015	     -0.00021690	     -0.00026028	      0.00247894	      0.00869728	      0.00605028	     -0.00810906	      0.01957939	     -0.01857101	      0.00247894	      0.00869728	      0.00605028	      0.00054621	      0.01815085	     -0.00953760	      0.00392750	      0.00483645	      0.01591746	      0.00000000	      0.00764852	      0.00000000	     -0.00710068	     -0.03281438	     -0.00630581	      0.01617462	     -0.00057007	     -0.00496444	     -0.00088233	      0.01478958	     -0.00605028	      0.00243692	      0.02134405	     -0.01764666	     -0.00592423	      0.01281483	     -0.00542004	     -0.01235266	      0.02705821	     -0.03029343	     -0.02319275	      0.01432740	     -0.00726874	     -0.01537780	      0.03125979	     -0.03785628
